<svg xmlns="http://www.w3.org/2000/svg" xmlns:xlink="http://www.w3.org/1999/xlink" width="500" zoomAndPan="magnify" viewBox="0 0 375 374.999991" height="500" preserveAspectRatio="xMidYMid meet" version="1.0"><defs><g/></defs><rect x="-37.5" width="450" fill="#ffffff" y="-37.499999" height="449.999989" fill-opacity="1"/><rect x="-37.5" width="450" fill="#ffd230" y="-37.499999" height="449.999989" fill-opacity="1"/><g fill="#f9faeb" fill-opacity="1"><g transform="translate(156.373924, 227.547657)"><g><path d="M 35.28125 -31.546875 C 35.976562 -31.804688 36.707031 -31.96875 37.46875 -32.03125 C 38.238281 -32.09375 39.039062 -32.125 39.875 -32.125 C 41.90625 -32.125 44.019531 -31.914062 46.21875 -31.5 C 48.425781 -31.082031 50.644531 -30.71875 52.875 -30.40625 C 54.269531 -30.207031 55.523438 -29.851562 56.640625 -29.34375 C 57.765625 -28.84375 58.328125 -27.664062 58.328125 -25.8125 C 58.328125 -24.664062 57.734375 -23.707031 56.546875 -22.9375 C 55.367188 -22.175781 54.0625 -21.601562 52.625 -21.21875 C 51.195312 -20.84375 50.066406 -20.65625 49.234375 -20.65625 C 48.660156 -20.65625 48.070312 -20.6875 47.46875 -20.75 C 46.863281 -20.8125 46.273438 -20.84375 45.703125 -20.84375 C 43.335938 -20.84375 41.054688 -20.585938 38.859375 -20.078125 C 36.660156 -19.566406 34.445312 -19.28125 32.21875 -19.21875 C 29.988281 -18.957031 28.519531 -18.207031 27.8125 -16.96875 C 27.113281 -15.726562 26.765625 -14.054688 26.765625 -11.953125 C 26.765625 -9.972656 27.035156 -8.109375 27.578125 -6.359375 C 28.117188 -4.609375 28.390625 -2.804688 28.390625 -0.953125 C 28.390625 0.378906 28.054688 1.710938 27.390625 3.046875 C 26.722656 4.390625 25.816406 5.507812 24.671875 6.40625 C 23.523438 7.300781 22.1875 7.75 20.65625 7.75 C 19.125 7.75 17.894531 7.15625 16.96875 5.96875 C 16.039062 4.789062 15.335938 3.359375 14.859375 1.671875 C 14.390625 -0.015625 14.070312 -1.6875 13.90625 -3.34375 C 13.75 -5 13.671875 -6.335938 13.671875 -7.359375 C 13.671875 -8.441406 13.734375 -9.492188 13.859375 -10.515625 C 13.984375 -11.535156 14.046875 -12.554688 14.046875 -13.578125 C 14.046875 -15.617188 13.695312 -17.210938 13 -18.359375 C 12.300781 -19.503906 11.582031 -20.472656 10.84375 -21.265625 C 10.113281 -22.066406 9.75 -22.945312 9.75 -23.90625 C 9.75 -25.050781 10.050781 -26.210938 10.65625 -27.390625 C 11.257812 -28.566406 11.863281 -29.875 12.46875 -31.3125 C 13.082031 -32.75 13.390625 -34.359375 13.390625 -36.140625 C 13.390625 -37.609375 13.210938 -38.976562 12.859375 -40.25 C 12.503906 -41.519531 11.5 -42.570312 9.84375 -43.40625 C 7.101562 -44.8125 5.734375 -46.53125 5.734375 -48.5625 C 5.734375 -49.070312 5.828125 -49.691406 6.015625 -50.421875 C 6.210938 -51.160156 6.535156 -51.878906 6.984375 -52.578125 C 8.253906 -54.554688 9.414062 -56.484375 10.46875 -58.359375 C 11.519531 -60.242188 12.078125 -62.460938 12.140625 -65.015625 C 12.265625 -66.484375 12.804688 -67.707031 13.765625 -68.6875 C 14.722656 -69.675781 15.90625 -70.171875 17.3125 -70.171875 C 18.257812 -70.171875 19.273438 -69.976562 20.359375 -69.59375 C 21.441406 -69.21875 22.460938 -69.03125 23.421875 -69.03125 C 26.929688 -69.03125 30.375 -69.457031 33.75 -70.3125 C 37.125 -71.175781 40.546875 -72.035156 44.015625 -72.890625 C 47.492188 -73.753906 51.050781 -74.1875 54.6875 -74.1875 C 56.40625 -74.1875 58.300781 -73.851562 60.375 -73.1875 C 62.445312 -72.519531 64.234375 -71.644531 65.734375 -70.5625 C 67.234375 -69.476562 67.984375 -68.265625 67.984375 -66.921875 C 67.984375 -65.460938 67.582031 -64.285156 66.78125 -63.390625 C 65.988281 -62.492188 65.050781 -61.851562 63.96875 -61.46875 C 62.882812 -61.09375 61.832031 -60.90625 60.8125 -60.90625 C 60.425781 -60.90625 60.039062 -60.921875 59.65625 -60.953125 C 59.28125 -60.984375 58.898438 -61.0625 58.515625 -61.1875 C 57.046875 -61.695312 55.59375 -62.0625 54.15625 -62.28125 C 52.726562 -62.507812 51.3125 -62.625 49.90625 -62.625 C 48.820312 -62.625 47.335938 -62.539062 45.453125 -62.375 C 43.578125 -62.21875 41.601562 -61.929688 39.53125 -61.515625 C 37.457031 -61.109375 35.476562 -60.550781 33.59375 -59.84375 C 31.71875 -59.144531 30.191406 -58.269531 29.015625 -57.21875 C 27.835938 -56.164062 27.25 -54.910156 27.25 -53.453125 C 27.25 -52.742188 27.328125 -51.785156 27.484375 -50.578125 C 27.648438 -49.367188 27.734375 -48.222656 27.734375 -47.140625 C 27.734375 -45.796875 27.570312 -44.375 27.25 -42.875 C 26.925781 -41.382812 26.601562 -40 26.28125 -38.71875 C 25.96875 -37.445312 25.8125 -36.394531 25.8125 -35.5625 C 25.8125 -33.84375 26.507812 -32.742188 27.90625 -32.265625 C 29.3125 -31.785156 31.769531 -31.546875 35.28125 -31.546875 Z M 35.28125 -31.546875 "/></g></g></g><g fill="#273c3c" fill-opacity="1"><g transform="translate(163.847045, 253.774231)"><g><path d="M 3.90625 -4.296875 L 4.15625 -4.296875 L 4.15625 -1.984375 L 3.90625 -1.984375 L 3.703125 -2.734375 C 3.679688 -2.804688 3.660156 -2.859375 3.640625 -2.890625 C 3.617188 -2.929688 3.578125 -2.957031 3.515625 -2.96875 C 3.453125 -2.976562 3.34375 -2.984375 3.1875 -2.984375 L 2.234375 -2.984375 L 2.234375 -0.78125 C 2.234375 -0.570312 2.242188 -0.445312 2.265625 -0.40625 C 2.285156 -0.363281 2.34375 -0.335938 2.4375 -0.328125 L 3.140625 -0.265625 L 3.140625 0 L 0.40625 0 L 0.40625 -0.265625 L 0.90625 -0.328125 C 1.007812 -0.335938 1.070312 -0.363281 1.09375 -0.40625 C 1.113281 -0.445312 1.125 -0.570312 1.125 -0.78125 L 1.125 -5.546875 C 1.125 -5.753906 1.113281 -5.878906 1.09375 -5.921875 C 1.070312 -5.960938 1.007812 -5.988281 0.90625 -6 L 0.40625 -6.078125 L 0.40625 -6.328125 L 4.8125 -6.328125 L 4.8125 -4.734375 L 4.546875 -4.734375 L 4.25 -5.765625 C 4.238281 -5.835938 4.21875 -5.890625 4.1875 -5.921875 C 4.164062 -5.960938 4.125 -5.984375 4.0625 -5.984375 C 4 -5.992188 3.894531 -6 3.75 -6 L 2.234375 -6 L 2.234375 -3.3125 L 3.1875 -3.3125 C 3.34375 -3.3125 3.453125 -3.3125 3.515625 -3.3125 C 3.578125 -3.320312 3.617188 -3.34375 3.640625 -3.375 C 3.660156 -3.414062 3.679688 -3.472656 3.703125 -3.546875 Z M 3.90625 -4.296875 "/></g></g></g><g fill="#273c3c" fill-opacity="1"><g transform="translate(171.609812, 253.774231)"><g><path d="M 4.5625 -1.609375 L 4.828125 -1.609375 L 4.828125 0 L 0.40625 0 L 0.40625 -0.265625 L 0.90625 -0.328125 C 1.007812 -0.335938 1.070312 -0.363281 1.09375 -0.40625 C 1.113281 -0.445312 1.125 -0.570312 1.125 -0.78125 L 1.125 -5.546875 C 1.125 -5.753906 1.113281 -5.878906 1.09375 -5.921875 C 1.070312 -5.960938 1.007812 -5.988281 0.90625 -6 L 0.40625 -6.078125 L 0.40625 -6.328125 L 2.953125 -6.328125 L 2.953125 -6.078125 L 2.4375 -6 C 2.34375 -5.988281 2.285156 -5.960938 2.265625 -5.921875 C 2.242188 -5.878906 2.234375 -5.753906 2.234375 -5.546875 L 2.234375 -0.328125 L 3.765625 -0.328125 C 3.910156 -0.328125 4.015625 -0.332031 4.078125 -0.34375 C 4.140625 -0.351562 4.179688 -0.375 4.203125 -0.40625 C 4.222656 -0.4375 4.242188 -0.488281 4.265625 -0.5625 Z M 4.5625 -1.609375 "/></g></g></g><g fill="#273c3c" fill-opacity="1"><g transform="translate(179.167868, 253.774231)"><g><path d="M 1.734375 -0.265625 L 1.734375 0 L -0.0625 0 L -0.0625 -0.265625 L 0.453125 -0.328125 C 0.523438 -0.335938 0.578125 -0.347656 0.609375 -0.359375 C 0.640625 -0.378906 0.664062 -0.421875 0.6875 -0.484375 C 0.707031 -0.546875 0.742188 -0.644531 0.796875 -0.78125 L 2.5625 -6.328125 L 3.375 -6.328125 L 5.15625 -0.78125 C 5.195312 -0.644531 5.226562 -0.546875 5.25 -0.484375 C 5.28125 -0.421875 5.3125 -0.378906 5.34375 -0.359375 C 5.382812 -0.347656 5.4375 -0.335938 5.5 -0.328125 L 6 -0.265625 L 6 0 L 3.4375 0 L 3.4375 -0.265625 L 3.953125 -0.328125 C 4.046875 -0.335938 4.097656 -0.363281 4.109375 -0.40625 C 4.117188 -0.445312 4.085938 -0.570312 4.015625 -0.78125 L 3.671875 -1.9375 L 1.515625 -1.9375 L 1.15625 -0.78125 C 1.09375 -0.570312 1.0625 -0.445312 1.0625 -0.40625 C 1.070312 -0.363281 1.128906 -0.335938 1.234375 -0.328125 Z M 1.625 -2.265625 L 3.5625 -2.265625 L 2.609375 -5.359375 Z M 1.625 -2.265625 "/></g></g></g><g fill="#273c3c" fill-opacity="1"><g transform="translate(187.721536, 253.774231)"><g><path d="M 5.109375 -5.546875 L 3.359375 0 L 2.546875 0 L 0.78125 -5.546875 C 0.738281 -5.691406 0.703125 -5.789062 0.671875 -5.84375 C 0.648438 -5.90625 0.625 -5.945312 0.59375 -5.96875 C 0.5625 -5.988281 0.515625 -6 0.453125 -6 L -0.0625 -6.078125 L -0.0625 -6.328125 L 2.53125 -6.328125 L 2.53125 -6.078125 L 2.015625 -6 C 1.910156 -5.988281 1.851562 -5.960938 1.84375 -5.921875 C 1.84375 -5.878906 1.875 -5.753906 1.9375 -5.546875 L 3.359375 -1.109375 L 4.75 -5.546875 C 4.820312 -5.753906 4.851562 -5.878906 4.84375 -5.921875 C 4.832031 -5.960938 4.773438 -5.988281 4.671875 -6 L 4.15625 -6.078125 L 4.15625 -6.328125 L 5.953125 -6.328125 L 5.953125 -6.078125 L 5.4375 -6 C 5.375 -6 5.328125 -5.988281 5.296875 -5.96875 C 5.265625 -5.945312 5.234375 -5.90625 5.203125 -5.84375 C 5.179688 -5.789062 5.148438 -5.691406 5.109375 -5.546875 Z M 5.109375 -5.546875 "/></g></g></g><g fill="#273c3c" fill-opacity="1"><g transform="translate(196.210076, 253.774231)"><g><path d="M 5.65625 -3.46875 L 5.65625 -2.875 C 5.65625 -1.914062 5.441406 -1.179688 5.015625 -0.671875 C 4.597656 -0.160156 3.972656 0.09375 3.140625 0.09375 C 2.304688 0.09375 1.675781 -0.160156 1.25 -0.671875 C 0.820312 -1.179688 0.609375 -1.914062 0.609375 -2.875 L 0.609375 -3.46875 C 0.609375 -4.414062 0.820312 -5.144531 1.25 -5.65625 C 1.675781 -6.164062 2.304688 -6.421875 3.140625 -6.421875 C 3.972656 -6.421875 4.597656 -6.164062 5.015625 -5.65625 C 5.441406 -5.144531 5.65625 -4.414062 5.65625 -3.46875 Z M 4.46875 -3.9375 C 4.46875 -4.476562 4.421875 -4.90625 4.328125 -5.21875 C 4.234375 -5.53125 4.085938 -5.753906 3.890625 -5.890625 C 3.703125 -6.023438 3.453125 -6.09375 3.140625 -6.09375 C 2.835938 -6.09375 2.585938 -6.023438 2.390625 -5.890625 C 2.191406 -5.753906 2.046875 -5.53125 1.953125 -5.21875 C 1.859375 -4.90625 1.8125 -4.476562 1.8125 -3.9375 L 1.8125 -2.40625 C 1.8125 -1.875 1.859375 -1.445312 1.953125 -1.125 C 2.046875 -0.8125 2.191406 -0.582031 2.390625 -0.4375 C 2.585938 -0.300781 2.835938 -0.234375 3.140625 -0.234375 C 3.453125 -0.234375 3.703125 -0.300781 3.890625 -0.4375 C 4.085938 -0.582031 4.234375 -0.8125 4.328125 -1.125 C 4.421875 -1.445312 4.46875 -1.875 4.46875 -2.40625 Z M 4.46875 -3.9375 "/></g></g></g><g fill="#273c3c" fill-opacity="1"><g transform="translate(205.089409, 253.774231)"><g><path d="M 0.40625 -6.078125 L 0.40625 -6.328125 L 3.21875 -6.328125 C 3.863281 -6.328125 4.363281 -6.179688 4.71875 -5.890625 C 5.070312 -5.597656 5.25 -5.207031 5.25 -4.71875 L 5.25 -4.5 C 5.25 -4.132812 5.144531 -3.820312 4.9375 -3.5625 C 4.738281 -3.300781 4.445312 -3.113281 4.0625 -3 L 5.21875 -0.78125 C 5.300781 -0.644531 5.359375 -0.546875 5.390625 -0.484375 C 5.429688 -0.421875 5.46875 -0.378906 5.5 -0.359375 C 5.53125 -0.347656 5.578125 -0.335938 5.640625 -0.328125 L 6.0625 -0.265625 L 6.0625 0 L 4.328125 0 L 2.921875 -2.890625 L 2.234375 -2.890625 L 2.234375 -0.78125 C 2.234375 -0.570312 2.242188 -0.445312 2.265625 -0.40625 C 2.285156 -0.363281 2.34375 -0.335938 2.4375 -0.328125 L 2.953125 -0.265625 L 2.953125 0 L 0.40625 0 L 0.40625 -0.265625 L 0.90625 -0.328125 C 1.007812 -0.335938 1.070312 -0.363281 1.09375 -0.40625 C 1.113281 -0.445312 1.125 -0.570312 1.125 -0.78125 L 1.125 -5.546875 C 1.125 -5.753906 1.113281 -5.878906 1.09375 -5.921875 C 1.070312 -5.960938 1.007812 -5.988281 0.90625 -6 Z M 3.21875 -6 L 2.234375 -6 L 2.234375 -3.21875 L 3.21875 -3.21875 C 3.488281 -3.21875 3.695312 -3.300781 3.84375 -3.46875 C 3.988281 -3.632812 4.0625 -3.953125 4.0625 -4.421875 L 4.0625 -4.8125 C 4.0625 -5.269531 3.988281 -5.582031 3.84375 -5.75 C 3.695312 -5.914062 3.488281 -6 3.21875 -6 Z M 3.21875 -6 "/></g></g></g><g fill="#273c3c" fill-opacity="1"><g transform="translate(154.706421, 266.52423)"><g><path d="M 3.90625 -4.296875 L 4.15625 -4.296875 L 4.15625 -1.984375 L 3.90625 -1.984375 L 3.703125 -2.734375 C 3.679688 -2.804688 3.660156 -2.859375 3.640625 -2.890625 C 3.617188 -2.929688 3.578125 -2.957031 3.515625 -2.96875 C 3.453125 -2.976562 3.34375 -2.984375 3.1875 -2.984375 L 2.234375 -2.984375 L 2.234375 -0.78125 C 2.234375 -0.570312 2.242188 -0.445312 2.265625 -0.40625 C 2.285156 -0.363281 2.34375 -0.335938 2.4375 -0.328125 L 3.140625 -0.265625 L 3.140625 0 L 0.40625 0 L 0.40625 -0.265625 L 0.90625 -0.328125 C 1.007812 -0.335938 1.070312 -0.363281 1.09375 -0.40625 C 1.113281 -0.445312 1.125 -0.570312 1.125 -0.78125 L 1.125 -5.546875 C 1.125 -5.753906 1.113281 -5.878906 1.09375 -5.921875 C 1.070312 -5.960938 1.007812 -5.988281 0.90625 -6 L 0.40625 -6.078125 L 0.40625 -6.328125 L 4.8125 -6.328125 L 4.8125 -4.734375 L 4.546875 -4.734375 L 4.25 -5.765625 C 4.238281 -5.835938 4.21875 -5.890625 4.1875 -5.921875 C 4.164062 -5.960938 4.125 -5.984375 4.0625 -5.984375 C 4 -5.992188 3.894531 -6 3.75 -6 L 2.234375 -6 L 2.234375 -3.3125 L 3.1875 -3.3125 C 3.34375 -3.3125 3.453125 -3.3125 3.515625 -3.3125 C 3.578125 -3.320312 3.617188 -3.34375 3.640625 -3.375 C 3.660156 -3.414062 3.679688 -3.472656 3.703125 -3.546875 Z M 3.90625 -4.296875 "/></g></g></g><g fill="#273c3c" fill-opacity="1"><g transform="translate(162.469188, 266.52423)"><g><path d="M 5.65625 -3.46875 L 5.65625 -2.875 C 5.65625 -1.914062 5.441406 -1.179688 5.015625 -0.671875 C 4.597656 -0.160156 3.972656 0.09375 3.140625 0.09375 C 2.304688 0.09375 1.675781 -0.160156 1.25 -0.671875 C 0.820312 -1.179688 0.609375 -1.914062 0.609375 -2.875 L 0.609375 -3.46875 C 0.609375 -4.414062 0.820312 -5.144531 1.25 -5.65625 C 1.675781 -6.164062 2.304688 -6.421875 3.140625 -6.421875 C 3.972656 -6.421875 4.597656 -6.164062 5.015625 -5.65625 C 5.441406 -5.144531 5.65625 -4.414062 5.65625 -3.46875 Z M 4.46875 -3.9375 C 4.46875 -4.476562 4.421875 -4.90625 4.328125 -5.21875 C 4.234375 -5.53125 4.085938 -5.753906 3.890625 -5.890625 C 3.703125 -6.023438 3.453125 -6.09375 3.140625 -6.09375 C 2.835938 -6.09375 2.585938 -6.023438 2.390625 -5.890625 C 2.191406 -5.753906 2.046875 -5.53125 1.953125 -5.21875 C 1.859375 -4.90625 1.8125 -4.476562 1.8125 -3.9375 L 1.8125 -2.40625 C 1.8125 -1.875 1.859375 -1.445312 1.953125 -1.125 C 2.046875 -0.8125 2.191406 -0.582031 2.390625 -0.4375 C 2.585938 -0.300781 2.835938 -0.234375 3.140625 -0.234375 C 3.453125 -0.234375 3.703125 -0.300781 3.890625 -0.4375 C 4.085938 -0.582031 4.234375 -0.8125 4.328125 -1.125 C 4.421875 -1.445312 4.46875 -1.875 4.46875 -2.40625 Z M 4.46875 -3.9375 "/></g></g></g><g fill="#273c3c" fill-opacity="1"><g transform="translate(171.348521, 266.52423)"><g><path d="M 4.296875 -6.078125 L 4.296875 -6.328125 L 6.09375 -6.328125 L 6.09375 -6.078125 L 5.59375 -6 C 5.488281 -5.988281 5.425781 -5.960938 5.40625 -5.921875 C 5.382812 -5.878906 5.375 -5.753906 5.375 -5.546875 L 5.375 -2.15625 C 5.375 -1.40625 5.21875 -0.84375 4.90625 -0.46875 C 4.59375 -0.09375 4.113281 0.09375 3.46875 0.09375 C 2.71875 0.09375 2.113281 -0.109375 1.65625 -0.515625 C 1.195312 -0.929688 0.96875 -1.523438 0.96875 -2.296875 L 0.96875 -5.546875 C 0.96875 -5.753906 0.957031 -5.878906 0.9375 -5.921875 C 0.914062 -5.960938 0.859375 -5.988281 0.765625 -6 L 0.25 -6.078125 L 0.25 -6.328125 L 2.796875 -6.328125 L 2.796875 -6.078125 L 2.296875 -6 C 2.191406 -5.988281 2.128906 -5.960938 2.109375 -5.921875 C 2.097656 -5.878906 2.09375 -5.753906 2.09375 -5.546875 L 2.09375 -2.21875 C 2.09375 -1.53125 2.21875 -1.03125 2.46875 -0.71875 C 2.71875 -0.40625 3.082031 -0.25 3.5625 -0.25 C 4.019531 -0.25 4.375 -0.394531 4.625 -0.6875 C 4.882812 -0.988281 5.015625 -1.46875 5.015625 -2.125 L 5.015625 -5.546875 C 5.015625 -5.753906 5.003906 -5.878906 4.984375 -5.921875 C 4.960938 -5.960938 4.90625 -5.988281 4.8125 -6 Z M 4.296875 -6.078125 "/></g></g></g><g fill="#273c3c" fill-opacity="1"><g transform="translate(180.320906, 266.52423)"><g><path d="M 4.328125 -6.078125 L 4.328125 -6.328125 L 6.140625 -6.328125 L 6.140625 -6.078125 L 5.625 -6 C 5.519531 -5.988281 5.457031 -5.960938 5.4375 -5.921875 C 5.425781 -5.878906 5.421875 -5.753906 5.421875 -5.546875 L 5.421875 0 L 4.90625 0 L 1.484375 -5.515625 L 1.484375 -0.78125 C 1.484375 -0.570312 1.492188 -0.445312 1.515625 -0.40625 C 1.535156 -0.363281 1.59375 -0.335938 1.6875 -0.328125 L 2.203125 -0.265625 L 2.203125 0 L 0.40625 0 L 0.40625 -0.265625 L 0.90625 -0.328125 C 1.007812 -0.335938 1.070312 -0.363281 1.09375 -0.40625 C 1.113281 -0.445312 1.125 -0.570312 1.125 -0.78125 L 1.125 -5.546875 C 1.125 -5.753906 1.113281 -5.878906 1.09375 -5.921875 C 1.070312 -5.960938 1.007812 -5.988281 0.90625 -6 L 0.40625 -6.078125 L 0.40625 -6.328125 L 2.265625 -6.328125 L 5.046875 -1.875 L 5.046875 -5.546875 C 5.046875 -5.753906 5.035156 -5.878906 5.015625 -5.921875 C 4.992188 -5.960938 4.9375 -5.988281 4.84375 -6 Z M 4.328125 -6.078125 "/></g></g></g><g fill="#273c3c" fill-opacity="1"><g transform="translate(189.321203, 266.52423)"><g><path d="M 0.40625 -6.078125 L 0.40625 -6.328125 L 3.140625 -6.328125 C 3.941406 -6.328125 4.550781 -6.09375 4.96875 -5.625 C 5.394531 -5.164062 5.609375 -4.445312 5.609375 -3.46875 L 5.609375 -2.875 C 5.609375 -1.894531 5.394531 -1.171875 4.96875 -0.703125 C 4.550781 -0.234375 3.941406 0 3.140625 0 L 0.40625 0 L 0.40625 -0.265625 L 0.90625 -0.328125 C 1.007812 -0.335938 1.070312 -0.363281 1.09375 -0.40625 C 1.113281 -0.445312 1.125 -0.570312 1.125 -0.78125 L 1.125 -5.546875 C 1.125 -5.753906 1.113281 -5.878906 1.09375 -5.921875 C 1.070312 -5.960938 1.007812 -5.988281 0.90625 -6 Z M 3.09375 -6 L 2.234375 -6 L 2.234375 -0.328125 L 3.09375 -0.328125 C 3.414062 -0.328125 3.671875 -0.378906 3.859375 -0.484375 C 4.054688 -0.597656 4.195312 -0.804688 4.28125 -1.109375 C 4.375 -1.410156 4.421875 -1.84375 4.421875 -2.40625 L 4.421875 -3.9375 C 4.421875 -4.5 4.375 -4.929688 4.28125 -5.234375 C 4.195312 -5.535156 4.054688 -5.738281 3.859375 -5.84375 C 3.671875 -5.945312 3.414062 -6 3.09375 -6 Z M 3.09375 -6 "/></g></g></g><g fill="#273c3c" fill-opacity="1"><g transform="translate(198.154015, 266.52423)"><g><path d="M 4.75 -1.609375 L 5.015625 -1.609375 L 5.015625 0 L 0.40625 0 L 0.40625 -0.265625 L 0.90625 -0.328125 C 1.007812 -0.335938 1.070312 -0.363281 1.09375 -0.40625 C 1.113281 -0.445312 1.125 -0.570312 1.125 -0.78125 L 1.125 -5.546875 C 1.125 -5.753906 1.113281 -5.878906 1.09375 -5.921875 C 1.070312 -5.960938 1.007812 -5.988281 0.90625 -6 L 0.40625 -6.078125 L 0.40625 -6.328125 L 4.921875 -6.328125 L 4.921875 -4.734375 L 4.65625 -4.734375 L 4.359375 -5.765625 C 4.335938 -5.835938 4.316406 -5.890625 4.296875 -5.921875 C 4.273438 -5.960938 4.234375 -5.984375 4.171875 -5.984375 C 4.109375 -5.992188 4.003906 -6 3.859375 -6 L 2.234375 -6 L 2.234375 -3.359375 L 3.296875 -3.359375 C 3.441406 -3.359375 3.546875 -3.363281 3.609375 -3.375 C 3.671875 -3.382812 3.710938 -3.40625 3.734375 -3.4375 C 3.753906 -3.46875 3.773438 -3.523438 3.796875 -3.609375 L 4 -4.359375 L 4.265625 -4.359375 L 4.265625 -2.046875 L 4 -2.046875 L 3.796875 -2.796875 C 3.773438 -2.867188 3.753906 -2.921875 3.734375 -2.953125 C 3.710938 -2.992188 3.671875 -3.015625 3.609375 -3.015625 C 3.546875 -3.023438 3.441406 -3.03125 3.296875 -3.03125 L 2.234375 -3.03125 L 2.234375 -0.328125 L 3.953125 -0.328125 C 4.097656 -0.328125 4.203125 -0.332031 4.265625 -0.34375 C 4.328125 -0.351562 4.367188 -0.375 4.390625 -0.40625 C 4.410156 -0.4375 4.429688 -0.488281 4.453125 -0.5625 Z M 4.75 -1.609375 "/></g></g></g><g fill="#273c3c" fill-opacity="1"><g transform="translate(206.372715, 266.52423)"><g><path d="M 0.40625 -6.078125 L 0.40625 -6.328125 L 3.21875 -6.328125 C 3.863281 -6.328125 4.363281 -6.179688 4.71875 -5.890625 C 5.070312 -5.597656 5.25 -5.207031 5.25 -4.71875 L 5.25 -4.5 C 5.25 -4.132812 5.144531 -3.820312 4.9375 -3.5625 C 4.738281 -3.300781 4.445312 -3.113281 4.0625 -3 L 5.21875 -0.78125 C 5.300781 -0.644531 5.359375 -0.546875 5.390625 -0.484375 C 5.429688 -0.421875 5.46875 -0.378906 5.5 -0.359375 C 5.53125 -0.347656 5.578125 -0.335938 5.640625 -0.328125 L 6.0625 -0.265625 L 6.0625 0 L 4.328125 0 L 2.921875 -2.890625 L 2.234375 -2.890625 L 2.234375 -0.78125 C 2.234375 -0.570312 2.242188 -0.445312 2.265625 -0.40625 C 2.285156 -0.363281 2.34375 -0.335938 2.4375 -0.328125 L 2.953125 -0.265625 L 2.953125 0 L 0.40625 0 L 0.40625 -0.265625 L 0.90625 -0.328125 C 1.007812 -0.335938 1.070312 -0.363281 1.09375 -0.40625 C 1.113281 -0.445312 1.125 -0.570312 1.125 -0.78125 L 1.125 -5.546875 C 1.125 -5.753906 1.113281 -5.878906 1.09375 -5.921875 C 1.070312 -5.960938 1.007812 -5.988281 0.90625 -6 Z M 3.21875 -6 L 2.234375 -6 L 2.234375 -3.21875 L 3.21875 -3.21875 C 3.488281 -3.21875 3.695312 -3.300781 3.84375 -3.46875 C 3.988281 -3.632812 4.0625 -3.953125 4.0625 -4.421875 L 4.0625 -4.8125 C 4.0625 -5.269531 3.988281 -5.582031 3.84375 -5.75 C 3.695312 -5.914062 3.488281 -6 3.21875 -6 Z M 3.21875 -6 "/></g></g></g><g fill="#273c3c" fill-opacity="1"><g transform="translate(215.038044, 266.52423)"><g><path d="M 2.5625 -0.234375 C 2.9375 -0.234375 3.242188 -0.320312 3.484375 -0.5 C 3.734375 -0.675781 3.859375 -0.953125 3.859375 -1.328125 C 3.859375 -1.609375 3.773438 -1.84375 3.609375 -2.03125 C 3.441406 -2.21875 3.148438 -2.375 2.734375 -2.5 L 1.859375 -2.75 C 1.421875 -2.882812 1.085938 -3.109375 0.859375 -3.421875 C 0.628906 -3.742188 0.515625 -4.144531 0.515625 -4.625 C 0.515625 -4.945312 0.585938 -5.242188 0.734375 -5.515625 C 0.878906 -5.785156 1.101562 -6.003906 1.40625 -6.171875 C 1.707031 -6.335938 2.085938 -6.421875 2.546875 -6.421875 C 3.046875 -6.421875 3.453125 -6.328125 3.765625 -6.140625 C 4.078125 -5.960938 4.289062 -5.726562 4.40625 -5.4375 C 4.53125 -5.144531 4.5625 -4.832031 4.5 -4.5 L 3.4375 -4.296875 C 3.53125 -4.878906 3.484375 -5.320312 3.296875 -5.625 C 3.117188 -5.9375 2.828125 -6.09375 2.421875 -6.09375 C 2.109375 -6.09375 1.851562 -6 1.65625 -5.8125 C 1.46875 -5.632812 1.375 -5.367188 1.375 -5.015625 C 1.375 -4.734375 1.457031 -4.484375 1.625 -4.265625 C 1.789062 -4.046875 2.0625 -3.878906 2.4375 -3.765625 L 3.3125 -3.5 C 3.78125 -3.363281 4.128906 -3.15625 4.359375 -2.875 C 4.597656 -2.601562 4.71875 -2.222656 4.71875 -1.734375 C 4.71875 -1.378906 4.640625 -1.0625 4.484375 -0.78125 C 4.328125 -0.507812 4.085938 -0.296875 3.765625 -0.140625 C 3.441406 0.015625 3.039062 0.09375 2.5625 0.09375 C 2.21875 0.09375 1.890625 0.0390625 1.578125 -0.0625 C 1.273438 -0.164062 1.019531 -0.332031 0.8125 -0.5625 C 0.601562 -0.800781 0.46875 -1.125 0.40625 -1.53125 L 1.03125 -1.75 C 1.0625 -1.351562 1.148438 -1.046875 1.296875 -0.828125 C 1.441406 -0.609375 1.625 -0.453125 1.84375 -0.359375 C 2.0625 -0.273438 2.300781 -0.234375 2.5625 -0.234375 Z M 2.5625 -0.234375 "/></g></g></g><path stroke-linecap="round" transform="matrix(0.75, 0, 0, 0.75, 165.866638, 124.137486)" fill="none" stroke-linejoin="miter" d="M 8.000733 7.998977 L 49.688235 7.998977 " stroke="#81cee9" stroke-width="16" stroke-opacity="1" stroke-miterlimit="4"/></svg>